<svg width="56" height="55" viewBox="0 0 56 55" fill="none" xmlns="http://www.w3.org/2000/svg">
<path d="M21.7366 55C25.9352 55.0081 30.0459 53.7969 33.5693 51.5134C37.0927 49.2299 39.8772 45.9725 41.5846 42.1366C43.2919 38.3008 43.8487 34.0517 43.1872 29.9055C42.5258 25.7593 40.6746 21.8944 37.8585 18.7802L39.5543 17.1302H48.8355C49.1394 17.1302 49.4309 17.0095 49.6458 16.7946C49.8606 16.5797 49.9814 16.2883 49.9814 15.9844C49.9814 15.6805 49.8606 15.389 49.6458 15.1741C49.4309 14.9593 49.1394 14.8385 48.8355 14.8385H41.846L44.596 12.0312H53.8772C54.1811 12.0312 54.4725 11.9105 54.6874 11.6956C54.9023 11.4807 55.023 11.1893 55.023 10.8854C55.023 10.5815 54.9023 10.2901 54.6874 10.0752C54.4725 9.8603 54.1811 9.73958 53.8772 9.73958H46.8876L52.6741 4.01041C52.7815 3.90389 52.8667 3.77716 52.9249 3.63753C52.9831 3.4979 53.013 3.34814 53.013 3.19687C53.013 3.04561 52.9831 2.89584 52.9249 2.75621C52.8667 2.61658 52.7815 2.48985 52.6741 2.38333C52.4594 2.16992 52.169 2.05013 51.8663 2.05013C51.5635 2.05013 51.2731 2.16992 51.0584 2.38333L45.2835 8.13541V1.14583C45.2835 0.841939 45.1627 0.550492 44.9478 0.335607C44.733 0.120721 44.4415 0 44.1376 0C43.8337 0 43.5423 0.120721 43.3274 0.335607C43.1125 0.550492 42.9918 0.841939 42.9918 1.14583V10.4271L40.1845 13.1771V6.22187C40.1845 5.91798 40.0638 5.62653 39.8489 5.41164C39.634 5.19676 39.3426 5.07604 39.0387 5.07604C38.7348 5.07604 38.4433 5.19676 38.2284 5.41164C38.0135 5.62653 37.8928 5.91798 37.8928 6.22187V15.4687L36.2428 17.1302C33.6272 14.7694 30.4762 13.081 27.0619 12.2108C23.6476 11.3406 20.0728 11.3149 16.6463 12.1357C13.2198 12.9565 10.0447 14.5993 7.39535 16.922C4.74595 19.2448 2.70193 22.1777 1.4399 25.4673C0.177874 28.757 -0.264215 32.3044 0.151831 35.8032C0.567877 39.302 1.82955 42.6469 3.82783 45.5488C5.82612 48.4508 8.50093 50.8226 11.6211 52.4592C14.7414 54.0959 18.2132 54.9483 21.7366 54.9427V55ZM21.7366 13.8531C26.4896 13.8552 31.075 15.6094 34.6157 18.7802L31.8543 21.5417C28.7996 18.908 24.8427 17.5614 20.8156 17.7848C16.7885 18.0082 13.0049 19.7843 10.2602 22.7397C7.51557 25.6951 6.02366 29.5995 6.09817 33.6321C6.17268 37.6647 7.8078 41.5113 10.6598 44.3633C13.5117 47.2152 17.3584 48.8503 21.391 48.9249C25.4236 48.9994 29.328 47.5075 32.2833 44.7628C35.2387 42.0181 37.0148 38.2345 37.2382 34.2074C37.4617 30.1803 36.115 26.2235 33.4814 23.1687L36.2428 20.4073C39.1814 23.733 40.8908 27.9658 41.0858 32.3995C41.2808 36.8332 39.9497 41.1998 37.3145 44.7707C34.6794 48.3416 30.8994 50.9011 26.6053 52.022C22.3112 53.1429 17.7626 52.7576 13.7183 50.9303C9.67391 49.103 6.37838 45.9442 4.38144 41.9809C2.3845 38.0175 1.80689 33.4893 2.74497 29.1516C3.68305 24.8139 6.08009 20.929 9.53622 18.1449C12.9924 15.3609 17.2986 13.846 21.7366 13.8531ZM28.0845 33.3323C28.0748 34.747 27.592 36.1178 26.7128 37.2263C25.8337 38.3348 24.6089 39.1172 23.2335 39.4488C21.8582 39.7804 20.4114 39.6423 19.1237 39.0563C17.836 38.4703 16.7814 37.4702 16.128 36.2153C15.4746 34.9605 15.2599 33.523 15.5182 32.132C15.7765 30.741 16.4929 29.4765 17.5533 28.5399C18.6136 27.6032 19.9569 27.0484 21.3692 26.9638C22.7814 26.8792 24.1814 27.2696 25.346 28.0729L20.9345 32.4844C20.7736 32.6439 20.6636 32.8476 20.6185 33.0697C20.5734 33.2918 20.5951 33.5223 20.681 33.732C20.7668 33.9417 20.9129 34.1213 21.1008 34.248C21.2887 34.3746 21.51 34.4428 21.7366 34.4437C21.8882 34.4431 22.0382 34.4124 22.1778 34.3534C22.3175 34.2944 22.444 34.2082 22.5501 34.1L26.9501 29.6771C27.6917 30.7349 28.0916 31.9945 28.096 33.2864L28.0845 33.3323ZM26.9387 26.4573C25.1751 25.1523 22.9817 24.566 20.8022 24.8172C18.6228 25.0684 16.6201 26.1382 15.1997 27.8102C13.7793 29.4822 13.0471 31.6313 13.1514 33.8227C13.2558 36.0141 14.1888 38.084 15.7616 39.6135C17.3345 41.143 19.4297 42.0177 21.6231 42.0607C23.8166 42.1037 25.9445 41.3118 27.576 39.8451C29.2076 38.3785 30.221 36.3467 30.4112 34.1611C30.6013 31.9755 29.9539 29.7992 28.6001 28.0729L31.8658 24.8073C34.0627 27.4235 35.1649 30.7869 34.9424 34.196C34.7199 37.6052 33.19 40.7968 30.6716 43.1053C28.1532 45.4138 24.8409 46.661 21.4253 46.5868C18.0097 46.5126 14.7547 45.1227 12.339 42.707C9.92322 40.2913 8.53332 37.0362 8.45911 33.6207C8.3849 30.2051 9.63211 26.8927 11.9406 24.3744C14.2492 21.856 17.4408 20.326 20.8499 20.1035C24.259 19.8811 27.6224 20.9832 30.2387 23.1802L26.9387 26.4573Z" fill="url(#paint0_linear_2_2962)"/>
<defs>
<linearGradient id="paint0_linear_2_2962" x1="27.5115" y1="0" x2="27.5115" y2="55" gradientUnits="userSpaceOnUse">
<stop stop-color="#144D88"/>
<stop offset="1" stop-color="#7F1B7D"/>
</linearGradient>
</defs>
</svg>
