<svg width="57" height="55" viewBox="0 0 57 55" fill="none" xmlns="http://www.w3.org/2000/svg">
<path d="M39.1074 35.5522C42.6232 35.5522 46.0601 34.5097 48.9833 32.5564C51.9066 30.6031 54.185 27.8269 55.5304 24.5787C56.8759 21.3306 57.2279 17.7564 56.542 14.3082C55.8561 10.8599 54.1631 7.69254 51.677 5.20651C49.191 2.72048 46.0236 1.02747 42.5754 0.341571C39.1272 -0.344324 35.553 0.0077021 32.3048 1.35313C29.0567 2.69857 26.2804 4.97697 24.3271 7.90024C22.3739 10.8235 21.3313 14.2603 21.3313 17.7761C21.3369 22.4889 23.2115 27.0071 26.5439 30.3396C29.8764 33.6721 34.3946 35.5467 39.1074 35.5522ZM39.1074 1.77762C42.2716 1.77762 45.3648 2.71591 47.9957 4.47385C50.6267 6.23179 52.6772 8.73041 53.8881 11.6538C55.099 14.5771 55.4158 17.7939 54.7985 20.8973C54.1812 24.0007 52.6575 26.8513 50.4201 29.0888C48.1827 31.3262 45.332 32.8499 42.2286 33.4672C39.1252 34.0845 35.9084 33.7677 32.9851 32.5568C30.0617 31.3459 27.5631 29.2953 25.8052 26.6644C24.0472 24.0335 23.1089 20.9403 23.1089 17.7761C23.1136 13.5345 24.8006 9.46788 27.7999 6.46858C30.7992 3.46929 34.8658 1.78225 39.1074 1.77762ZM39.1074 20.4425C39.5035 20.4404 39.8939 20.3491 40.2498 20.1753L43.7008 23.6262C43.868 23.7901 44.0932 23.8814 44.3273 23.8802C44.5615 23.879 44.7857 23.7855 44.9512 23.6199C45.1168 23.4544 45.2103 23.2301 45.2115 22.996C45.2127 22.7618 45.1214 22.5367 44.9576 22.3695L41.5066 18.9185C41.6804 18.5626 41.7717 18.1722 41.7739 17.7761C41.7722 17.2265 41.6004 16.6908 41.2821 16.2427C40.9638 15.7946 40.5147 15.456 39.9962 15.2734V11.5545C39.9962 11.3188 39.9026 11.0927 39.7359 10.926C39.5692 10.7593 39.3432 10.6657 39.1074 10.6657C38.8717 10.6657 38.6456 10.7593 38.479 10.926C38.3123 11.0927 38.2186 11.3188 38.2186 11.5545V15.2734C37.6258 15.4818 37.1259 15.8934 36.8075 16.4353C36.4892 16.9771 36.373 17.6141 36.4794 18.2334C36.5859 18.8528 36.9083 19.4144 37.3893 19.8188C37.8703 20.2231 38.479 20.4441 39.1074 20.4425ZM39.1074 16.8873C39.2832 16.8873 39.4551 16.9394 39.6012 17.0371C39.7474 17.1348 39.8613 17.2736 39.9286 17.436C39.9959 17.5984 40.0135 17.7771 39.9792 17.9495C39.9449 18.1219 39.8602 18.2803 39.7359 18.4046C39.6116 18.5289 39.4533 18.6136 39.2808 18.6478C39.1084 18.6821 38.9297 18.6645 38.7673 18.5973C38.6049 18.53 38.4661 18.4161 38.3684 18.2699C38.2708 18.1237 38.2186 17.9519 38.2186 17.7761C38.2191 17.5405 38.3129 17.3147 38.4795 17.1482C38.6461 16.9816 38.8719 16.8878 39.1074 16.8873ZM29.0511 27.8325C29.0635 27.8449 29.0804 27.849 29.0934 27.8606C31.7529 30.5097 35.3537 31.997 39.1074 31.997C42.8612 31.997 46.462 30.5097 49.1215 27.8606C49.1345 27.849 49.1513 27.8449 49.1638 27.8325C49.1763 27.82 49.1803 27.8032 49.1919 27.7902C51.841 25.1307 53.3283 21.5299 53.3283 17.7761C53.3283 14.0224 51.841 10.4216 49.1919 7.76209C49.1803 7.74908 49.1763 7.73226 49.1638 7.71978C49.1513 7.7073 49.1345 7.70328 49.1215 7.69168C46.462 5.0426 42.8612 3.55524 39.1074 3.55524C35.3537 3.55524 31.7529 5.0426 29.0934 7.69168C29.0804 7.70328 29.0636 7.7073 29.0511 7.71978C29.0386 7.73226 29.0346 7.74908 29.023 7.76209C26.3739 10.4216 24.8865 14.0224 24.8865 17.7761C24.8865 21.5299 26.3739 25.1307 29.023 27.7902C29.0346 27.8032 29.0386 27.82 29.0511 27.8325ZM27.553 16.8873H26.7092C26.8985 14.2096 27.9534 11.666 29.7147 9.64017L30.3079 10.2334C30.4751 10.3973 30.7003 10.4886 30.9344 10.4874C31.1686 10.4862 31.3928 10.3927 31.5584 10.2271C31.7239 10.0615 31.8175 9.83733 31.8187 9.60318C31.8198 9.36904 31.7286 9.14389 31.5647 8.97666L30.9714 8.3834C32.9973 6.62208 35.5409 5.56721 38.2186 5.37787V6.22165C38.2186 6.45737 38.3123 6.68344 38.479 6.85013C38.6456 7.01681 38.8717 7.11045 39.1074 7.11045C39.3432 7.11045 39.5692 7.01681 39.7359 6.85013C39.9026 6.68344 39.9962 6.45737 39.9962 6.22165V5.37787C42.674 5.56721 45.2176 6.62205 47.2434 8.38333L46.6501 8.97659C46.5662 9.0588 46.4995 9.15683 46.4537 9.26501C46.4079 9.37319 46.3841 9.48937 46.3835 9.60683C46.3829 9.72429 46.4056 9.84071 46.4502 9.94934C46.4949 10.058 46.5607 10.1567 46.6437 10.2397C46.7268 10.3228 46.8255 10.3886 46.9341 10.4332C47.0428 10.4779 47.1592 10.5006 47.2767 10.5C47.3941 10.4994 47.5103 10.4756 47.6185 10.4298C47.7267 10.384 47.8247 10.3173 47.9069 10.2334L48.5002 9.6401C50.2615 11.6659 51.3163 14.2095 51.5057 16.8873H50.6619C50.4262 16.8873 50.2001 16.981 50.0334 17.1476C49.8667 17.3143 49.7731 17.5404 49.7731 17.7761C49.7731 18.0118 49.8667 18.2379 50.0334 18.4046C50.2001 18.5713 50.4262 18.6649 50.6619 18.6649H51.5057C51.3164 21.3427 50.2615 23.8862 48.5002 25.9121L47.907 25.3188C47.7397 25.1549 47.5146 25.0637 47.2804 25.0648C47.0463 25.066 46.8221 25.1596 46.6565 25.3251C46.4909 25.4907 46.3974 25.7149 46.3962 25.949C46.395 26.1832 46.4863 26.4083 46.6502 26.5756L47.2435 27.1688C45.2176 28.9302 42.674 29.985 39.9962 30.1744V29.3306C39.9962 29.0949 39.9026 28.8688 39.7359 28.7021C39.5692 28.5354 39.3432 28.4418 39.1074 28.4418C38.8717 28.4418 38.6456 28.5354 38.479 28.7021C38.3123 28.8688 38.2186 29.0949 38.2186 29.3306V30.1744C35.5409 29.985 32.9973 28.9302 30.9715 27.1689L31.5648 26.5756C31.7286 26.4084 31.8199 26.1833 31.8187 25.9491C31.8175 25.715 31.724 25.4908 31.5584 25.3252C31.3929 25.1596 31.1687 25.0661 30.9345 25.0649C30.7004 25.0637 30.4752 25.155 30.308 25.3189L29.7147 25.9121C27.9534 23.8863 26.8985 21.3427 26.7092 18.6649H27.553C27.7887 18.6649 28.0148 18.5713 28.1814 18.4046C28.3481 18.2379 28.4418 18.0118 28.4418 17.7761C28.4418 17.5404 28.3481 17.3143 28.1814 17.1476C28.0148 16.981 27.7887 16.8873 27.553 16.8873ZM50.2366 43.1696L32.2886 44.6643C31.6013 44.723 30.9098 44.6196 30.2697 44.3622L30.1776 44.3253L30.1986 44.3153C30.8395 43.8816 31.3443 43.275 31.6544 42.5659C31.9644 41.8568 32.0669 41.0742 31.9501 40.3092C31.8332 39.5441 31.5017 38.8279 30.9941 38.2437C30.4865 37.6595 29.8236 37.2313 29.0823 37.0087L13.5873 32.3598C13.5568 32.3552 13.5262 32.3523 13.4955 32.3511C13.0934 31.7306 12.5426 31.2205 11.8931 30.867C11.2437 30.5135 10.5163 30.3279 9.77686 30.327H0.888806C0.772067 30.327 0.65646 30.3499 0.548594 30.3945C0.440729 30.4392 0.342721 30.5047 0.260174 30.5872C0.177627 30.6697 0.112161 30.7678 0.0675184 30.8756C0.0228758 30.9835 -6.76177e-05 31.0991 1.49684e-07 31.2158V50.7696C-6.76177e-05 50.8863 0.0228758 51.0019 0.0675184 51.1098C0.112161 51.2176 0.177627 51.3156 0.260174 51.3982C0.342721 51.4807 0.440729 51.5462 0.548594 51.5908C0.65646 51.6355 0.772067 51.6584 0.888806 51.6584H9.77686C10.4194 51.6562 11.0536 51.5138 11.6355 51.2412C12.2173 50.9686 12.7326 50.5724 13.1454 50.0801L28.1571 54.5851C30.0862 55.1671 32.1484 55.1361 34.0593 54.4966L51.3771 48.7246C51.8482 48.5672 52.2701 48.2897 52.6012 47.9194C52.9323 47.5492 53.1611 47.099 53.2651 46.6133C53.369 46.1276 53.3445 45.6232 53.1939 45.1498C53.0434 44.6765 52.772 44.2506 52.4065 43.9142C52.1173 43.6448 51.7747 43.4393 51.4008 43.311C51.027 43.1827 50.6303 43.1345 50.2366 43.1696ZM7.11044 49.8807H1.77761V32.1046H7.11044V49.8807ZM12.4433 47.2143C12.4425 47.9213 12.1613 48.599 11.6614 49.0989C11.1616 49.5988 10.4838 49.88 9.77686 49.8807H8.88805V32.1046H9.77686C10.4838 32.1054 11.1616 32.3866 11.6614 32.8865C12.1613 33.3863 12.4425 34.0641 12.4433 34.7711V47.2143ZM50.813 47.0373L33.4969 52.8093C31.9335 53.3327 30.2463 53.3588 28.6674 52.8839L14.2209 48.5475V34.4042L28.572 38.7099C28.8714 38.7995 29.1495 38.9489 29.3897 39.1489C29.6298 39.349 29.8268 39.5956 29.969 39.874C30.1112 40.1523 30.1954 40.4566 30.2168 40.7684C30.2381 41.0802 30.196 41.3931 30.0931 41.6882C29.9901 41.9833 29.8284 42.2545 29.6178 42.4854C29.4072 42.7162 29.1519 42.9021 28.8675 43.0316C28.583 43.1611 28.2753 43.2316 27.9629 43.239C27.6504 43.2463 27.3397 43.1902 27.0495 43.0741L22.55 41.2739C22.4416 41.2302 22.3257 41.2082 22.2088 41.2094C22.0919 41.2105 21.9765 41.2347 21.869 41.2806C21.7615 41.3265 21.6641 41.3931 21.5824 41.4767C21.5007 41.5602 21.4364 41.6591 21.393 41.7676C21.3496 41.8761 21.328 41.9921 21.3295 42.109C21.331 42.2258 21.3556 42.3412 21.4018 42.4486C21.448 42.5559 21.5149 42.6531 21.5988 42.7345C21.6826 42.8159 21.7817 42.88 21.8903 42.9231L26.3899 44.7232L29.6101 46.0113C30.5074 46.3665 31.4741 46.5114 32.4362 46.4349L50.3841 44.9402C50.6837 44.9218 50.9784 45.0229 51.2035 45.2215C51.3136 45.3221 51.4014 45.4447 51.4612 45.5813C51.521 45.718 51.5515 45.8656 51.5507 46.0148C51.5505 46.2411 51.4792 46.4615 51.3468 46.645C51.2144 46.8285 51.0277 46.9657 50.813 47.0373Z" fill="url(#paint0_linear_2_2963)"/>
<defs>
<linearGradient id="paint0_linear_2_2963" x1="28.4418" y1="0" x2="28.4418" y2="55" gradientUnits="userSpaceOnUse">
<stop stop-color="#144D88"/>
<stop offset="1" stop-color="#7F1B7D"/>
</linearGradient>
</defs>
</svg>
