<svg width="55" height="55" viewBox="0 0 55 55" fill="none" xmlns="http://www.w3.org/2000/svg">
<path d="M22.0872 16.674C22.1759 16.674 23.5953 16.4078 24.1276 16.2304C24.5711 16.1417 24.9259 15.6982 24.8372 15.2546C24.7485 14.8111 24.305 14.4562 23.8614 14.5449C23.2405 14.6336 22.5308 14.8111 21.9098 14.9885C21.4663 15.0772 21.1114 15.6095 21.2888 16.053C21.3776 16.4078 21.7324 16.674 22.0872 16.674Z" fill="url(#paint0_linear_2_2957)"/>
<path d="M54.7339 26.7921C54.1129 26.3485 40.0968 14.1953 27.5 14.1953C26.9677 14.1953 26.6129 14.5502 26.6129 15.0824C26.6129 15.6147 26.9677 15.9695 27.5 15.9695C37.7903 15.9695 49.5887 24.9292 52.6936 27.5018C49.5887 30.0743 37.7903 39.034 27.5 39.034C17.2097 39.034 5.41129 30.0743 2.30645 27.5018C4.6129 25.6389 11.4435 20.405 18.9839 17.655C19.4274 17.4776 19.6935 16.9453 19.5161 16.5018C19.3387 16.0582 18.8065 15.7921 18.3629 15.9695C8.87097 19.4292 0.620968 26.526 0.266129 26.7921C0.0887096 26.9695 0 27.2356 0 27.5018C0 27.7679 0.0887096 28.034 0.266129 28.2114C0.887097 28.655 14.9032 40.8082 27.5 40.8082C40.0968 40.8082 54.1129 28.655 54.7339 28.2114C54.9113 28.034 55 27.7679 55 27.5018C55 27.2356 54.9113 26.9695 54.7339 26.7921Z" fill="url(#paint1_linear_2_2957)"/>
<path d="M27.5013 37.2581C28.0336 37.2581 28.3884 36.9032 28.3884 36.371C28.3884 35.8387 28.0336 35.4839 27.5013 35.4839C23.0658 35.4839 19.5174 31.9355 19.5174 27.5C19.5174 23.0645 23.0658 19.5161 27.5013 19.5161C31.9368 19.5161 35.4852 23.0645 35.4852 27.5C35.4852 30.5161 33.7997 33.2661 31.0497 34.6855C30.6061 34.8629 30.4287 35.3952 30.6061 35.8387C30.7836 36.2823 31.3158 36.4597 31.7594 36.2823C35.219 34.5968 37.2594 31.2258 37.2594 27.5C37.2594 22.0887 32.9126 17.7419 27.5013 17.7419C22.09 17.7419 17.7432 22.0887 17.7432 27.5C17.7432 32.9113 22.09 37.2581 27.5013 37.2581ZM27.5013 5.32258C28.0336 5.32258 28.3884 4.96774 28.3884 4.43548V0.887097C28.3884 0.354839 28.0336 0 27.5013 0C26.969 0 26.6142 0.354839 26.6142 0.887097V4.43548C26.6142 4.96774 26.969 5.32258 27.5013 5.32258ZM10.7352 10.1129C10.9126 10.4677 11.4448 10.8226 11.8884 10.4677C12.3319 10.2016 12.5094 9.75806 12.2432 9.31452L10.469 5.76613C10.2916 5.32258 9.75936 5.14516 9.31582 5.41129C8.87227 5.58871 8.69485 6.12097 8.96098 6.56452L10.7352 10.1129ZM43.1142 10.5565C43.5578 10.8226 44.1787 10.4677 44.2674 10.2016L46.0416 6.65323C46.219 6.20968 46.0416 5.67742 45.6868 5.5C45.2432 5.32258 44.711 5.5 44.5336 5.85484L42.7594 9.40323C42.4932 9.75806 42.6707 10.2903 43.1142 10.5565ZM27.5013 49.6774C26.969 49.6774 26.6142 50.0323 26.6142 50.5645V54.1129C26.6142 54.6452 26.969 55 27.5013 55C28.0336 55 28.3884 54.6452 28.3884 54.1129V50.5645C28.3884 50.0323 28.0336 49.6774 27.5013 49.6774ZM11.8884 44.4435C11.4448 44.2661 10.9126 44.4435 10.7352 44.7984L8.96098 48.3468C8.78356 48.7903 8.96098 49.3226 9.31582 49.5C9.75936 49.7661 10.3803 49.4113 10.469 49.1452L12.2432 45.5968C12.5094 45.2419 12.3319 44.7097 11.8884 44.4435ZM44.2674 44.8871C44.09 44.4435 43.5578 44.2661 43.1142 44.5323C42.6707 44.7097 42.4932 45.2419 42.7594 45.6855L44.5336 49.2339C44.711 49.5887 45.1545 49.9436 45.6868 49.5887C46.1303 49.4113 46.3078 48.879 46.0416 48.4355L44.2674 44.8871Z" fill="url(#paint2_linear_2_2957)"/>
<path d="M31.9352 27.4987C31.9352 28.031 32.29 28.3858 32.8223 28.3858C33.3545 28.3858 33.7094 28.031 33.7094 27.4987C33.7094 24.0391 30.9594 21.2891 27.4997 21.2891C26.9674 21.2891 26.6126 21.6439 26.6126 22.1762C26.6126 22.7084 26.9674 23.0633 27.4997 23.0633C29.9836 23.0633 31.9352 25.0149 31.9352 27.4987ZM23.2416 28.9181C23.0642 28.4745 22.5319 28.2084 22.0884 28.3858C21.6448 28.5633 21.3787 29.0955 21.5561 29.5391C22.5319 32.0229 24.9271 33.6197 27.411 33.6197C27.9432 33.6197 28.2981 33.2649 28.2981 32.7326C28.2981 32.2004 27.9432 31.8455 27.411 31.8455C25.6368 31.9342 23.9513 30.6923 23.2416 28.9181ZM12.3303 23.6842C12.0642 23.2407 11.5319 23.152 11.0884 23.4181C8.33839 25.1036 5.76581 26.7891 5.76581 26.7891C5.49968 26.8778 5.32227 27.2326 5.32227 27.4987C5.32227 27.7649 5.49969 28.031 5.6771 28.2084L8.33839 29.9826C8.51581 30.0713 9.13678 30.3374 9.58033 29.7165C9.84646 29.2729 9.75775 28.7407 9.3142 28.4745L7.80614 27.4987C8.78194 26.8778 10.3787 25.902 11.9755 24.8374C12.419 24.66 12.5077 24.0391 12.3303 23.6842Z" fill="url(#paint3_linear_2_2957)"/>
<defs>
<linearGradient id="paint0_linear_2_2957" x1="23.0466" y1="14.5313" x2="23.0466" y2="16.674" gradientUnits="userSpaceOnUse">
<stop stop-color="#144D88"/>
<stop offset="1" stop-color="#7F1B7D"/>
</linearGradient>
<linearGradient id="paint1_linear_2_2957" x1="27.5" y1="14.1953" x2="27.5" y2="40.8082" gradientUnits="userSpaceOnUse">
<stop stop-color="#144D88"/>
<stop offset="1" stop-color="#7F1B7D"/>
</linearGradient>
<linearGradient id="paint2_linear_2_2957" x1="27.5013" y1="0" x2="27.5013" y2="55" gradientUnits="userSpaceOnUse">
<stop stop-color="#144D88"/>
<stop offset="1" stop-color="#7F1B7D"/>
</linearGradient>
<linearGradient id="paint3_linear_2_2957" x1="19.5158" y1="21.2891" x2="19.5158" y2="33.6197" gradientUnits="userSpaceOnUse">
<stop stop-color="#144D88"/>
<stop offset="1" stop-color="#7F1B7D"/>
</linearGradient>
</defs>
</svg>
